# xmcd
#
# Track frame offsets: 
#        150
#        83067
#        166457
#
# Disc length: 2759 seconds
#
# Revision: 0
# Processed by: cddbd v1.5.2PL0 Copyright (c) Steve Scherf et al.
# Submitted via: ExactAudioCopy v0.99pb5
#
DISCID=190ac503
DTITLE=Cream  - Synergy - Disc 3  MA-003
DYEAR=1900
DGENRE=
TTITLE0=Sunshine of Your Love
TTITLE1=Spoonful
TTITLE2=Sleepy Time Time
EXTD=
EXTT0=
EXTT1=
EXTT2=
PLAYORDER=
